<mxfile host="app.diagrams.net" modified="2023-09-21T19:08:30.746Z" agent="Mozilla/5.0 (X11; Linux x86_64) AppleWebKit/537.36 (KHTML, like Gecko) Chrome/115.0.0.0 Safari/537.36" version="21.8.0" etag="sDQt3IAYwVkED9joDank" type="github">
  <diagram name="PÃ¡gina-1" id="0LhvMpZs0rklIZp0dkxk">
    <mxGraphModel>
      <root>
        <mxCell id="0" />
        <mxCell id="1" parent="0" />
      </root>
    </mxGraphModel>
  </diagram>
</mxfile>
